<svg xmlns="http://www.w3.org/2000/svg" version="1.1" viewBox="0 0 1000 1000"><g><g fill="red" fill-opacity="0.4"><path d="M7.8431372549019605,1000 7.8431372549019605,992.156862745098 0,992.156862745098 0,976.4705882352941 3.9215686274509802,976.4705882352941 3.9215686274509802,984.313725490196 7.8431372549019605,984.313725490196 7.8431372549019605,988.2352941176471 11.76470588235294,988.2352941176471 11.76470588235294,992.156862745098 15.686274509803921,992.156862745098 15.686274509803921,996.078431372549 23.52941176470588,996.078431372549 23.52941176470588,1000 7.8431372549019605,1000 M105.88235294117646,1000 105.88235294117646,996.078431372549 54.90196078431372,996.078431372549 54.90196078431372,992.156862745098 58.8235294117647,992.156862745098 58.8235294117647,988.2352941176471 62.745098039215684,988.2352941176471 62.745098039215684,984.313725490196 66.66666666666667,984.313725490196 66.66666666666667,976.4705882352941 70.58823529411765,976.4705882352941 70.58823529411765,952.9411764705882 66.66666666666667,952.9411764705882 66.66666666666667,945.0980392156863 62.745098039215684,945.0980392156863 62.745098039215684,941.1764705882352 58.8235294117647,941.1764705882352 58.8235294117647,937.2549019607843 54.90196078431372,937.2549019607843 54.90196078431372,933.3333333333334 47.05882352941176,933.3333333333334 47.05882352941176,929.4117647058823 23.52941176470588,929.4117647058823 23.52941176470588,933.3333333333334 15.686274509803921,933.3333333333334 15.686274509803921,937.2549019607843 11.76470588235294,937.2549019607843 11.76470588235294,941.1764705882352 7.8431372549019605,941.1764705882352 7.8431372549019605,945.0980392156863 3.9215686274509802,945.0980392156863 3.9215686274509802,952.9411764705882 0,952.9411764705882 0,905.8823529411765 3.9215686274509802,905.8823529411765 3.9215686274509802,360.78431372549016 0,360.78431372549016 0,356.8627450980392 3.9215686274509802,356.8627450980392 3.9215686274509802,70.58823529411765 0,70.58823529411765 0,23.52941176470588 27.45098039215686,23.52941176470588 27.45098039215686,19.607843137254903 31.372549019607842,19.607843137254903 31.372549019607842,15.686274509803921 27.45098039215686,15.686274509803921 27.45098039215686,0 1000,0 1000,996.078431372549 168.62745098039215,996.078431372549 168.62745098039215,1000 105.88235294117646,1000 M66.66666666666667,984.313725490196 66.66666666666667,992.156862745098 74.50980392156863,992.156862745098 74.50980392156863,984.313725490196 66.66666666666667,984.313725490196 M466.6666666666667,976.4705882352941 474.5098039215686,976.4705882352941 474.5098039215686,972.5490196078431 470.5882352941176,972.5490196078431 470.5882352941176,968.6274509803922 466.6666666666667,968.6274509803922 466.6666666666667,976.4705882352941 M113.72549019607843,968.6274509803922 125.49019607843137,968.6274509803922 125.49019607843137,956.8627450980392 113.72549019607843,956.8627450980392 113.72549019607843,968.6274509803922 M447.05882352941177,968.6274509803922 454.9019607843137,968.6274509803922 454.9019607843137,960.7843137254902 450.98039215686276,960.7843137254902 450.98039215686276,956.8627450980392 439.2156862745098,956.8627450980392 439.2156862745098,964.7058823529411 447.05882352941177,964.7058823529411 447.05882352941177,968.6274509803922 M215.68627450980392,960.7843137254902 258.8235294117647,960.7843137254902 258.8235294117647,956.8627450980392 262.7450980392157,956.8627450980392 262.7450980392157,949.0196078431372 247.05882352941177,949.0196078431372 247.05882352941177,945.0980392156863 231.37254901960785,945.0980392156863 231.37254901960785,949.0196078431372 227.45098039215685,949.0196078431372 227.45098039215685,952.9411764705882 215.68627450980392,952.9411764705882 215.68627450980392,960.7843137254902 M549.0196078431372,956.8627450980392 556.8627450980392,956.8627450980392 556.8627450980392,952.9411764705882 564.7058823529412,952.9411764705882 564.7058823529412,949.0196078431372 576.4705882352941,949.0196078431372 576.4705882352941,945.0980392156863 584.313725490196,945.0980392156863 584.313725490196,949.0196078431372 596.0784313725491,949.0196078431372 596.0784313725491,952.9411764705882 607.843137254902,952.9411764705882 607.843137254902,949.0196078431372 615.6862745098039,949.0196078431372 615.6862745098039,945.0980392156863 635.2941176470588,945.0980392156863 635.2941176470588,941.1764705882352 654.9019607843137,941.1764705882352 654.9019607843137,952.9411764705882 662.7450980392157,952.9411764705882 662.7450980392157,956.8627450980392 674.5098039215686,956.8627450980392 674.5098039215686,952.9411764705882 682.3529411764706,952.9411764705882 682.3529411764706,949.0196078431372 690.1960784313725,949.0196078431372 690.1960784313725,941.1764705882352 694.1176470588235,941.1764705882352 694.1176470588235,937.2549019607843 698.0392156862745,937.2549019607843 698.0392156862745,945.0980392156863 701.9607843137255,945.0980392156863 701.9607843137255,949.0196078431372 717.6470588235294,949.0196078431372 717.6470588235294,952.9411764705882 721.5686274509803,952.9411764705882 721.5686274509803,949.0196078431372 737.2549019607843,949.0196078431372 737.2549019607843,945.0980392156863 741.1764705882352,945.0980392156863 741.1764705882352,941.1764705882352 745.0980392156863,941.1764705882352 745.0980392156863,937.2549019607843 749.0196078431372,937.2549019607843 749.0196078431372,929.4117647058823 752.9411764705882,929.4117647058823 752.9411764705882,933.3333333333334 760.7843137254902,933.3333333333334 760.7843137254902,929.4117647058823 764.7058823529412,929.4117647058823 764.7058823529412,925.4901960784314 768.6274509803922,925.4901960784314 768.6274509803922,921.5686274509803 772.5490196078431,921.5686274509803 772.5490196078431,917.6470588235294 796.0784313725491,917.6470588235294 796.0784313725491,909.8039215686274 803.9215686274509,909.8039215686274 803.9215686274509,913.7254901960785 807.843137254902,913.7254901960785 807.843137254902,909.8039215686274 815.6862745098039,909.8039215686274 815.6862745098039,905.8823529411765 819.6078431372549,905.8823529411765 819.6078431372549,913.7254901960785 827.4509803921568,913.7254901960785 827.4509803921568,901.9607843137255 831.3725490196078,901.9607843137255 831.3725490196078,898.0392156862745 839.2156862745098,898.0392156862745 839.2156862745098,890.1960784313725 843.1372549019608,890.1960784313725 843.1372549019608,882.3529411764706 847.0588235294117,882.3529411764706 847.0588235294117,874.5098039215686 850.9803921568628,874.5098039215686 850.9803921568628,878.4313725490196 858.8235294117646,878.4313725490196 858.8235294117646,874.5098039215686 862.7450980392157,874.5098039215686 862.7450980392157,870.5882352941177 870.5882352941177,870.5882352941177 870.5882352941177,862.7450980392157 874.5098039215686,862.7450980392157 874.5098039215686,847.0588235294117 882.3529411764706,847.0588235294117 882.3529411764706,843.1372549019608 890.1960784313725,843.1372549019608 890.1960784313725,839.2156862745098 898.0392156862745,839.2156862745098 898.0392156862745,835.2941176470588 905.8823529411765,835.2941176470588 905.8823529411765,831.3725490196078 909.8039215686274,831.3725490196078 909.8039215686274,827.4509803921568 917.6470588235294,827.4509803921568 917.6470588235294,823.5294117647059 921.5686274509803,823.5294117647059 921.5686274509803,819.6078431372549 925.4901960784314,819.6078431372549 925.4901960784314,815.6862745098039 929.4117647058823,815.6862745098039 929.4117647058823,807.843137254902 933.3333333333334,807.843137254902 933.3333333333334,800 937.2549019607843,800 937.2549019607843,792.156862745098 921.5686274509803,792.156862745098 921.5686274509803,796.0784313725491 913.7254901960785,796.0784313725491 913.7254901960785,792.156862745098 917.6470588235294,792.156862745098 917.6470588235294,788.2352941176471 921.5686274509803,788.2352941176471 921.5686274509803,780.3921568627451 925.4901960784314,780.3921568627451 925.4901960784314,776.4705882352941 929.4117647058823,776.4705882352941 929.4117647058823,760.7843137254902 933.3333333333334,760.7843137254902 933.3333333333334,752.9411764705882 937.2549019607843,752.9411764705882 937.2549019607843,745.0980392156863 941.1764705882352,745.0980392156863 941.1764705882352,741.1764705882352 945.0980392156863,741.1764705882352 945.0980392156863,733.3333333333334 949.0196078431372,733.3333333333334 949.0196078431372,725.4901960784314 956.8627450980392,725.4901960784314 956.8627450980392,721.5686274509803 960.7843137254902,721.5686274509803 960.7843137254902,717.6470588235294 964.7058823529411,717.6470588235294 964.7058823529411,705.8823529411765 968.6274509803922,705.8823529411765 968.6274509803922,690.1960784313725 972.5490196078431,690.1960784313725 972.5490196078431,658.8235294117646 976.4705882352941,658.8235294117646 976.4705882352941,643.1372549019608 980.3921568627451,643.1372549019608 980.3921568627451,623.5294117647059 960.7843137254902,623.5294117647059 960.7843137254902,627.4509803921569 956.8627450980392,627.4509803921569 956.8627450980392,635.2941176470588 952.9411764705882,635.2941176470588 952.9411764705882,639.2156862745098 945.0980392156863,639.2156862745098 945.0980392156863,647.0588235294117 949.0196078431372,647.0588235294117 949.0196078431372,650.9803921568628 937.2549019607843,650.9803921568628 937.2549019607843,654.9019607843137 933.3333333333334,654.9019607843137 933.3333333333334,662.7450980392157 925.4901960784314,662.7450980392157 925.4901960784314,670.5882352941177 933.3333333333334,670.5882352941177 933.3333333333334,678.4313725490196 929.4117647058823,678.4313725490196 929.4117647058823,682.3529411764706 925.4901960784314,682.3529411764706 925.4901960784314,678.4313725490196 921.5686274509803,678.4313725490196 921.5686274509803,690.1960784313725 917.6470588235294,690.1960784313725 917.6470588235294,686.2745098039215 901.9607843137255,686.2745098039215 901.9607843137255,666.6666666666666 905.8823529411765,666.6666666666666 905.8823529411765,647.0588235294117 909.8039215686274,647.0588235294117 909.8039215686274,635.2941176470588 901.9607843137255,635.2941176470588 901.9607843137255,643.1372549019608 894.1176470588235,643.1372549019608 894.1176470588235,627.4509803921569 890.1960784313725,627.4509803921569 890.1960784313725,600 886.2745098039215,600 886.2745098039215,564.7058823529412 882.3529411764706,564.7058823529412 882.3529411764706,560.7843137254902 886.2745098039215,560.7843137254902 886.2745098039215,537.2549019607843 882.3529411764706,537.2549019607843 882.3529411764706,517.6470588235294 878.4313725490196,517.6470588235294 878.4313725490196,494.11764705882354 874.5098039215686,494.11764705882354 874.5098039215686,482.35294117647055 870.5882352941177,482.35294117647055 870.5882352941177,470.5882352941176 866.6666666666666,470.5882352941176 866.6666666666666,466.6666666666667 862.7450980392157,466.6666666666667 862.7450980392157,458.8235294117647 854.9019607843137,458.8235294117647 854.9019607843137,450.98039215686276 850.9803921568628,450.98039215686276 850.9803921568628,447.05882352941177 847.0588235294117,447.05882352941177 847.0588235294117,443.1372549019608 843.1372549019608,443.1372549019608 843.1372549019608,435.29411764705884 839.2156862745098,435.29411764705884 839.2156862745098,427.45098039215685 835.2941176470588,427.45098039215685 835.2941176470588,419.6078431372549 831.3725490196078,419.6078431372549 831.3725490196078,415.6862745098039 827.4509803921568,415.6862745098039 827.4509803921568,411.7647058823529 823.5294117647059,411.7647058823529 823.5294117647059,407.84313725490193 819.6078431372549,407.84313725490193 819.6078431372549,403.921568627451 815.6862745098039,403.921568627451 815.6862745098039,380.3921568627451 819.6078431372549,380.3921568627451 819.6078431372549,368.62745098039215 823.5294117647059,368.62745098039215 823.5294117647059,360.78431372549016 827.4509803921568,360.78431372549016 827.4509803921568,352.94117647058823 831.3725490196078,352.94117647058823 831.3725490196078,349.01960784313724 839.2156862745098,349.01960784313724 839.2156862745098,345.09803921568624 843.1372549019608,345.09803921568624 843.1372549019608,325.4901960784314 839.2156862745098,325.4901960784314 839.2156862745098,321.5686274509804 831.3725490196078,321.5686274509804 831.3725490196078,313.72549019607845 835.2941176470588,313.72549019607845 835.2941176470588,286.27450980392155 850.9803921568628,286.27450980392155 850.9803921568628,266.6666666666667 854.9019607843137,266.6666666666667 854.9019607843137,258.8235294117647 862.7450980392157,258.8235294117647 862.7450980392157,254.90196078431373 866.6666666666666,254.90196078431373 866.6666666666666,243.13725490196077 870.5882352941177,243.13725490196077 870.5882352941177,239.2156862745098 874.5098039215686,239.2156862745098 874.5098039215686,231.37254901960785 878.4313725490196,231.37254901960785 878.4313725490196,203.92156862745097 882.3529411764706,203.92156862745097 882.3529411764706,196.078431372549 878.4313725490196,196.078431372549 878.4313725490196,188.23529411764704 874.5098039215686,188.23529411764704 874.5098039215686,180.39215686274508 870.5882352941177,180.39215686274508 870.5882352941177,176.47058823529412 874.5098039215686,176.47058823529412 874.5098039215686,172.54901960784312 866.6666666666666,172.54901960784312 866.6666666666666,168.62745098039215 862.7450980392157,168.62745098039215 862.7450980392157,172.54901960784312 854.9019607843137,172.54901960784312 854.9019607843137,164.70588235294116 843.1372549019608,164.70588235294116 843.1372549019608,160.7843137254902 835.2941176470588,160.7843137254902 835.2941176470588,164.70588235294116 831.3725490196078,164.70588235294116 831.3725490196078,156.86274509803923 823.5294117647059,156.86274509803923 823.5294117647059,152.94117647058823 819.6078431372549,152.94117647058823 819.6078431372549,149.01960784313727 815.6862745098039,149.01960784313727 815.6862745098039,145.09803921568627 807.843137254902,145.09803921568627 807.843137254902,141.1764705882353 803.9215686274509,141.1764705882353 803.9215686274509,137.2549019607843 796.0784313725491,137.2549019607843 796.0784313725491,133.33333333333334 792.156862745098,133.33333333333334 792.156862745098,129.41176470588235 776.4705882352941,129.41176470588235 776.4705882352941,125.49019607843137 772.5490196078431,125.49019607843137 772.5490196078431,121.56862745098039 768.6274509803922,121.56862745098039 768.6274509803922,125.49019607843137 749.0196078431372,125.49019607843137 749.0196078431372,129.41176470588235 729.4117647058823,129.41176470588235 729.4117647058823,133.33333333333334 705.8823529411765,133.33333333333334 705.8823529411765,129.41176470588235 698.0392156862745,129.41176470588235 698.0392156862745,125.49019607843137 694.1176470588235,125.49019607843137 694.1176470588235,121.56862745098039 686.2745098039215,121.56862745098039 686.2745098039215,117.6470588235294 682.3529411764706,117.6470588235294 682.3529411764706,101.96078431372548 678.4313725490196,101.96078431372548 678.4313725490196,94.11764705882352 674.5098039215686,94.11764705882352 674.5098039215686,82.35294117647058 670.5882352941177,82.35294117647058 670.5882352941177,78.43137254901961 658.8235294117646,78.43137254901961 658.8235294117646,74.50980392156863 650.9803921568628,74.50980392156863 650.9803921568628,70.58823529411765 623.5294117647059,70.58823529411765 623.5294117647059,66.66666666666667 615.6862745098039,66.66666666666667 615.6862745098039,62.745098039215684 600,62.745098039215684 600,66.66666666666667 588.2352941176471,66.66666666666667 588.2352941176471,62.745098039215684 576.4705882352941,62.745098039215684 576.4705882352941,58.8235294117647 572.5490196078431,58.8235294117647 572.5490196078431,54.90196078431372 564.7058823529412,54.90196078431372 564.7058823529412,50.98039215686274 552.9411764705882,50.98039215686274 552.9411764705882,47.05882352941176 549.0196078431372,47.05882352941176 549.0196078431372,43.13725490196078 541.1764705882352,43.13725490196078 541.1764705882352,23.52941176470588 533.3333333333334,23.52941176470588 533.3333333333334,27.45098039215686 529.4117647058823,27.45098039215686 529.4117647058823,23.52941176470588 521.5686274509803,23.52941176470588 521.5686274509803,19.607843137254903 513.7254901960785,19.607843137254903 513.7254901960785,23.52941176470588 505.88235294117646,23.52941176470588 505.88235294117646,27.45098039215686 501.96078431372547,27.45098039215686 501.96078431372547,23.52941176470588 486.27450980392155,23.52941176470588 486.27450980392155,27.45098039215686 482.35294117647055,27.45098039215686 482.35294117647055,35.294117647058826 470.5882352941176,35.294117647058826 470.5882352941176,39.21568627450981 462.7450980392157,39.21568627450981 462.7450980392157,47.05882352941176 447.05882352941177,47.05882352941176 447.05882352941177,50.98039215686274 443.1372549019608,50.98039215686274 443.1372549019608,54.90196078431372 439.2156862745098,54.90196078431372 439.2156862745098,58.8235294117647 435.29411764705884,58.8235294117647 435.29411764705884,54.90196078431372 423.52941176470586,54.90196078431372 423.52941176470586,62.745098039215684 419.6078431372549,62.745098039215684 419.6078431372549,70.58823529411765 411.7647058823529,70.58823529411765 411.7647058823529,66.66666666666667 403.921568627451,66.66666666666667 403.921568627451,70.58823529411765 384.3137254901961,70.58823529411765 384.3137254901961,74.50980392156863 376.4705882352941,74.50980392156863 376.4705882352941,78.43137254901961 372.54901960784315,78.43137254901961 372.54901960784315,74.50980392156863 360.78431372549016,74.50980392156863 360.78431372549016,78.43137254901961 333.3333333333333,78.43137254901961 333.3333333333333,82.35294117647058 317.6470588235294,82.35294117647058 317.6470588235294,78.43137254901961 309.80392156862746,78.43137254901961 309.80392156862746,82.35294117647058 305.88235294117646,82.35294117647058 305.88235294117646,86.27450980392156 301.96078431372547,86.27450980392156 301.96078431372547,90.19607843137254 290.19607843137254,90.19607843137254 290.19607843137254,94.11764705882352 282.3529411764706,94.11764705882352 282.3529411764706,98.0392156862745 278.4313725490196,98.0392156862745 278.4313725490196,101.96078431372548 274.5098039215686,101.96078431372548 274.5098039215686,109.80392156862744 270.5882352941176,109.80392156862744 270.5882352941176,113.72549019607843 266.6666666666667,113.72549019607843 266.6666666666667,117.6470588235294 262.7450980392157,117.6470588235294 262.7450980392157,121.56862745098039 258.8235294117647,121.56862745098039 258.8235294117647,125.49019607843137 254.90196078431373,125.49019607843137 254.90196078431373,133.33333333333334 250.98039215686273,133.33333333333334 250.98039215686273,141.1764705882353 247.05882352941177,141.1764705882353 247.05882352941177,152.94117647058823 243.13725490196077,152.94117647058823 243.13725490196077,164.70588235294116 239.2156862745098,164.70588235294116 239.2156862745098,231.37254901960785 243.13725490196077,231.37254901960785 243.13725490196077,235.2941176470588 254.90196078431373,235.2941176470588 254.90196078431373,239.2156862745098 258.8235294117647,239.2156862745098 258.8235294117647,243.13725490196077 247.05882352941177,243.13725490196077 247.05882352941177,262.7450980392157 250.98039215686273,262.7450980392157 250.98039215686273,286.27450980392155 247.05882352941177,286.27450980392155 247.05882352941177,290.19607843137254 243.13725490196077,290.19607843137254 243.13725490196077,305.88235294117646 247.05882352941177,305.88235294117646 247.05882352941177,309.80392156862746 243.13725490196077,309.80392156862746 243.13725490196077,352.94117647058823 235.2941176470588,352.94117647058823 235.2941176470588,356.8627450980392 227.45098039215685,356.8627450980392 227.45098039215685,360.78431372549016 223.52941176470588,360.78431372549016 223.52941176470588,364.70588235294116 227.45098039215685,364.70588235294116 227.45098039215685,368.62745098039215 223.52941176470588,368.62745098039215 223.52941176470588,376.4705882352941 227.45098039215685,376.4705882352941 227.45098039215685,380.3921568627451 223.52941176470588,380.3921568627451 223.52941176470588,384.3137254901961 227.45098039215685,384.3137254901961 227.45098039215685,396.078431372549 239.2156862745098,396.078431372549 239.2156862745098,400 235.2941176470588,400 235.2941176470588,407.84313725490193 227.45098039215685,407.84313725490193 227.45098039215685,400 215.68627450980392,400 215.68627450980392,403.921568627451 211.76470588235293,403.921568627451 211.76470588235293,407.84313725490193 207.84313725490196,407.84313725490193 207.84313725490196,415.6862745098039 200,415.6862745098039 200,423.52941176470586 196.078431372549,423.52941176470586 196.078431372549,427.45098039215685 192.15686274509804,427.45098039215685 192.15686274509804,423.52941176470586 188.23529411764704,423.52941176470586 188.23529411764704,419.6078431372549 184.31372549019608,419.6078431372549 184.31372549019608,415.6862745098039 176.47058823529412,415.6862745098039 176.47058823529412,411.7647058823529 168.62745098039215,411.7647058823529 168.62745098039215,407.84313725490193 172.54901960784312,407.84313725490193 172.54901960784312,392.156862745098 168.62745098039215,392.156862745098 168.62745098039215,388.2352941176471 164.70588235294116,388.2352941176471 164.70588235294116,384.3137254901961 160.7843137254902,384.3137254901961 160.7843137254902,380.3921568627451 156.86274509803923,380.3921568627451 156.86274509803923,376.4705882352941 145.09803921568627,376.4705882352941 145.09803921568627,380.3921568627451 137.2549019607843,380.3921568627451 137.2549019607843,384.3137254901961 133.33333333333334,384.3137254901961 133.33333333333334,388.2352941176471 129.41176470588235,388.2352941176471 129.41176470588235,392.156862745098 125.49019607843137,392.156862745098 125.49019607843137,400 121.56862745098039,400 121.56862745098039,411.7647058823529 109.80392156862744,411.7647058823529 109.80392156862744,415.6862745098039 105.88235294117646,415.6862745098039 105.88235294117646,419.6078431372549 101.96078431372548,419.6078431372549 101.96078431372548,423.52941176470586 90.19607843137254,423.52941176470586 90.19607843137254,419.6078431372549 86.27450980392156,419.6078431372549 86.27450980392156,407.84313725490193 70.58823529411765,407.84313725490193 70.58823529411765,415.6862745098039 66.66666666666667,415.6862745098039 66.66666666666667,427.45098039215685 70.58823529411765,427.45098039215685 70.58823529411765,435.29411764705884 66.66666666666667,435.29411764705884 66.66666666666667,443.1372549019608 62.745098039215684,443.1372549019608 62.745098039215684,447.05882352941177 58.8235294117647,447.05882352941177 58.8235294117647,450.98039215686276 54.90196078431372,450.98039215686276 54.90196078431372,466.6666666666667 50.98039215686274,466.6666666666667 50.98039215686274,478.4313725490196 47.05882352941176,478.4313725490196 47.05882352941176,486.27450980392155 43.13725490196078,486.27450980392155 43.13725490196078,494.11764705882354 39.21568627450981,494.11764705882354 39.21568627450981,498.0392156862745 35.294117647058826,498.0392156862745 35.294117647058826,509.80392156862746 31.372549019607842,509.80392156862746 31.372549019607842,517.6470588235294 35.294117647058826,517.6470588235294 35.294117647058826,556.8627450980392 31.372549019607842,556.8627450980392 31.372549019607842,560.7843137254902 35.294117647058826,560.7843137254902 35.294117647058826,568.6274509803922 39.21568627450981,568.6274509803922 39.21568627450981,572.5490196078431 43.13725490196078,572.5490196078431 43.13725490196078,576.4705882352941 47.05882352941176,576.4705882352941 47.05882352941176,584.313725490196 43.13725490196078,584.313725490196 43.13725490196078,611.7647058823529 47.05882352941176,611.7647058823529 47.05882352941176,627.4509803921569 50.98039215686274,627.4509803921569 50.98039215686274,647.0588235294117 54.90196078431372,647.0588235294117 54.90196078431372,658.8235294117646 58.8235294117647,658.8235294117646 58.8235294117647,666.6666666666666 62.745098039215684,666.6666666666666 62.745098039215684,682.3529411764706 66.66666666666667,682.3529411764706 66.66666666666667,686.2745098039215 58.8235294117647,686.2745098039215 58.8235294117647,694.1176470588235 66.66666666666667,694.1176470588235 66.66666666666667,698.0392156862745 70.58823529411765,698.0392156862745 70.58823529411765,701.9607843137255 74.50980392156863,701.9607843137255 74.50980392156863,705.8823529411765 78.43137254901961,705.8823529411765 78.43137254901961,709.8039215686274 82.35294117647058,709.8039215686274 82.35294117647058,721.5686274509803 78.43137254901961,721.5686274509803 78.43137254901961,717.6470588235294 70.58823529411765,717.6470588235294 70.58823529411765,749.0196078431372 66.66666666666667,749.0196078431372 66.66666666666667,756.8627450980392 62.745098039215684,756.8627450980392 62.745098039215684,764.7058823529412 66.66666666666667,764.7058823529412 66.66666666666667,768.6274509803922 58.8235294117647,768.6274509803922 58.8235294117647,780.3921568627451 54.90196078431372,780.3921568627451 54.90196078431372,784.313725490196 58.8235294117647,784.313725490196 58.8235294117647,788.2352941176471 54.90196078431372,788.2352941176471 54.90196078431372,807.843137254902 66.66666666666667,807.843137254902 66.66666666666667,823.5294117647059 70.58823529411765,823.5294117647059 70.58823529411765,827.4509803921568 74.50980392156863,827.4509803921568 74.50980392156863,831.3725490196078 78.43137254901961,831.3725490196078 78.43137254901961,850.9803921568628 82.35294117647058,850.9803921568628 82.35294117647058,854.9019607843137 86.27450980392156,854.9019607843137 86.27450980392156,866.6666666666666 90.19607843137254,866.6666666666666 90.19607843137254,874.5098039215686 94.11764705882352,874.5098039215686 94.11764705882352,898.0392156862745 98.0392156862745,898.0392156862745 98.0392156862745,909.8039215686274 101.96078431372548,909.8039215686274 101.96078431372548,929.4117647058823 121.56862745098039,929.4117647058823 121.56862745098039,941.1764705882352 125.49019607843137,941.1764705882352 125.49019607843137,945.0980392156863 133.33333333333334,945.0980392156863 133.33333333333334,949.0196078431372 172.54901960784312,949.0196078431372 172.54901960784312,952.9411764705882 192.15686274509804,952.9411764705882 192.15686274509804,949.0196078431372 207.84313725490196,949.0196078431372 207.84313725490196,945.0980392156863 219.6078431372549,945.0980392156863 219.6078431372549,941.1764705882352 227.45098039215685,941.1764705882352 227.45098039215685,937.2549019607843 235.2941176470588,937.2549019607843 235.2941176470588,933.3333333333334 250.98039215686273,933.3333333333334 250.98039215686273,937.2549019607843 262.7450980392157,937.2549019607843 262.7450980392157,941.1764705882352 266.6666666666667,941.1764705882352 266.6666666666667,945.0980392156863 274.5098039215686,945.0980392156863 274.5098039215686,949.0196078431372 305.88235294117646,949.0196078431372 305.88235294117646,945.0980392156863 321.5686274509804,945.0980392156863 321.5686274509804,941.1764705882352 333.3333333333333,941.1764705882352 333.3333333333333,937.2549019607843 380.3921568627451,937.2549019607843 380.3921568627451,933.3333333333334 384.3137254901961,933.3333333333334 384.3137254901961,937.2549019607843 388.2352941176471,937.2549019607843 388.2352941176471,941.1764705882352 396.078431372549,941.1764705882352 396.078431372549,937.2549019607843 400,937.2549019607843 400,941.1764705882352 415.6862745098039,941.1764705882352 415.6862745098039,945.0980392156863 419.6078431372549,945.0980392156863 419.6078431372549,941.1764705882352 427.45098039215685,941.1764705882352 427.45098039215685,945.0980392156863 435.29411764705884,945.0980392156863 435.29411764705884,941.1764705882352 450.98039215686276,941.1764705882352 450.98039215686276,937.2549019607843 482.35294117647055,937.2549019607843 482.35294117647055,933.3333333333334 498.0392156862745,933.3333333333334 498.0392156862745,929.4117647058823 505.88235294117646,929.4117647058823 505.88235294117646,937.2549019607843 529.4117647058823,937.2549019607843 529.4117647058823,941.1764705882352 533.3333333333334,941.1764705882352 533.3333333333334,945.0980392156863 537.2549019607843,945.0980392156863 537.2549019607843,949.0196078431372 541.1764705882352,949.0196078431372 541.1764705882352,952.9411764705882 549.0196078431372,952.9411764705882 549.0196078431372,956.8627450980392 M921.5686274509803,956.8627450980392 945.0980392156863,956.8627450980392 945.0980392156863,952.9411764705882 949.0196078431372,952.9411764705882 949.0196078431372,949.0196078431372 952.9411764705882,949.0196078431372 952.9411764705882,941.1764705882352 941.1764705882352,941.1764705882352 941.1764705882352,925.4901960784314 933.3333333333334,925.4901960784314 933.3333333333334,917.6470588235294 925.4901960784314,917.6470588235294 925.4901960784314,921.5686274509803 921.5686274509803,921.5686274509803 921.5686274509803,929.4117647058823 913.7254901960785,929.4117647058823 913.7254901960785,949.0196078431372 917.6470588235294,949.0196078431372 917.6470588235294,952.9411764705882 921.5686274509803,952.9411764705882 921.5686274509803,956.8627450980392 M835.2941176470588,945.0980392156863 839.2156862745098,945.0980392156863 839.2156862745098,941.1764705882352 835.2941176470588,941.1764705882352 835.2941176470588,945.0980392156863 M952.9411764705882,917.6470588235294 968.6274509803922,917.6470588235294 968.6274509803922,913.7254901960785 976.4705882352941,913.7254901960785 976.4705882352941,909.8039215686274 980.3921568627451,909.8039215686274 980.3921568627451,894.1176470588235 976.4705882352941,894.1176470588235 976.4705882352941,890.1960784313725 980.3921568627451,890.1960784313725 980.3921568627451,886.2745098039215 984.313725490196,886.2745098039215 984.313725490196,850.9803921568628 988.2352941176471,850.9803921568628 988.2352941176471,843.1372549019608 984.313725490196,843.1372549019608 984.313725490196,839.2156862745098 980.3921568627451,839.2156862745098 980.3921568627451,835.2941176470588 976.4705882352941,835.2941176470588 976.4705882352941,839.2156862745098 968.6274509803922,839.2156862745098 968.6274509803922,831.3725490196078 956.8627450980392,831.3725490196078 956.8627450980392,835.2941176470588 941.1764705882352,835.2941176470588 941.1764705882352,839.2156862745098 929.4117647058823,839.2156862745098 929.4117647058823,843.1372549019608 925.4901960784314,843.1372549019608 925.4901960784314,847.0588235294117 921.5686274509803,847.0588235294117 921.5686274509803,854.9019607843137 925.4901960784314,854.9019607843137 925.4901960784314,870.5882352941177 929.4117647058823,870.5882352941177 929.4117647058823,878.4313725490196 913.7254901960785,878.4313725490196 913.7254901960785,874.5098039215686 921.5686274509803,874.5098039215686 921.5686274509803,862.7450980392157 913.7254901960785,862.7450980392157 913.7254901960785,858.8235294117646 909.8039215686274,858.8235294117646 909.8039215686274,850.9803921568628 898.0392156862745,850.9803921568628 898.0392156862745,854.9019607843137 894.1176470588235,854.9019607843137 894.1176470588235,862.7450980392157 898.0392156862745,862.7450980392157 898.0392156862745,870.5882352941177 901.9607843137255,870.5882352941177 901.9607843137255,874.5098039215686 905.8823529411765,874.5098039215686 905.8823529411765,878.4313725490196 898.0392156862745,878.4313725490196 898.0392156862745,890.1960784313725 905.8823529411765,890.1960784313725 905.8823529411765,894.1176470588235 913.7254901960785,894.1176470588235 913.7254901960785,890.1960784313725 917.6470588235294,890.1960784313725 917.6470588235294,886.2745098039215 925.4901960784314,886.2745098039215 925.4901960784314,894.1176470588235 941.1764705882352,894.1176470588235 941.1764705882352,890.1960784313725 945.0980392156863,890.1960784313725 945.0980392156863,882.3529411764706 949.0196078431372,882.3529411764706 949.0196078431372,874.5098039215686 945.0980392156863,874.5098039215686 945.0980392156863,866.6666666666666 933.3333333333334,866.6666666666666 933.3333333333334,854.9019607843137 941.1764705882352,854.9019607843137 941.1764705882352,862.7450980392157 949.0196078431372,862.7450980392157 949.0196078431372,870.5882352941177 956.8627450980392,870.5882352941177 956.8627450980392,854.9019607843137 949.0196078431372,854.9019607843137 949.0196078431372,847.0588235294117 952.9411764705882,847.0588235294117 952.9411764705882,850.9803921568628 972.5490196078431,850.9803921568628 972.5490196078431,854.9019607843137 968.6274509803922,854.9019607843137 968.6274509803922,858.8235294117646 960.7843137254902,858.8235294117646 960.7843137254902,866.6666666666666 964.7058823529411,866.6666666666666 964.7058823529411,874.5098039215686 956.8627450980392,874.5098039215686 956.8627450980392,882.3529411764706 952.9411764705882,882.3529411764706 952.9411764705882,894.1176470588235 949.0196078431372,894.1176470588235 949.0196078431372,898.0392156862745 945.0980392156863,898.0392156862745 945.0980392156863,901.9607843137255 937.2549019607843,901.9607843137255 937.2549019607843,898.0392156862745 929.4117647058823,898.0392156862745 929.4117647058823,905.8823529411765 933.3333333333334,905.8823529411765 933.3333333333334,909.8039215686274 937.2549019607843,909.8039215686274 937.2549019607843,913.7254901960785 952.9411764705882,913.7254901960785 952.9411764705882,917.6470588235294 M909.8039215686274,847.0588235294117 917.6470588235294,847.0588235294117 917.6470588235294,843.1372549019608 909.8039215686274,843.1372549019608 909.8039215686274,847.0588235294117 M976.4705882352941,823.5294117647059 988.2352941176471,823.5294117647059 988.2352941176471,819.6078431372549 984.313725490196,819.6078431372549 984.313725490196,811.7647058823529 988.2352941176471,811.7647058823529 988.2352941176471,803.9215686274509 984.313725490196,803.9215686274509 984.313725490196,784.313725490196 980.3921568627451,784.313725490196 980.3921568627451,776.4705882352941 984.313725490196,776.4705882352941 984.313725490196,760.7843137254902 976.4705882352941,760.7843137254902 976.4705882352941,764.7058823529412 972.5490196078431,764.7058823529412 972.5490196078431,768.6274509803922 968.6274509803922,768.6274509803922 968.6274509803922,772.5490196078431 964.7058823529411,772.5490196078431 964.7058823529411,788.2352941176471 960.7843137254902,788.2352941176471 960.7843137254902,807.843137254902 964.7058823529411,807.843137254902 964.7058823529411,815.6862745098039 968.6274509803922,815.6862745098039 968.6274509803922,819.6078431372549 976.4705882352941,819.6078431372549 976.4705882352941,823.5294117647059 M54.90196078431372,717.6470588235294 66.66666666666667,717.6470588235294 66.66666666666667,709.8039215686274 62.745098039215684,709.8039215686274 62.745098039215684,705.8823529411765 58.8235294117647,705.8823529411765 58.8235294117647,701.9607843137255 47.05882352941176,701.9607843137255 47.05882352941176,713.7254901960785 54.90196078431372,713.7254901960785 54.90196078431372,717.6470588235294 M960.7843137254902,615.6862745098039 980.3921568627451,615.6862745098039 980.3921568627451,580.3921568627451 976.4705882352941,580.3921568627451 976.4705882352941,576.4705882352941 972.5490196078431,576.4705882352941 972.5490196078431,572.5490196078431 968.6274509803922,572.5490196078431 968.6274509803922,584.313725490196 964.7058823529411,584.313725490196 964.7058823529411,588.2352941176471 960.7843137254902,588.2352941176471 960.7843137254902,596.0784313725491 968.6274509803922,596.0784313725491 968.6274509803922,600 964.7058823529411,600 964.7058823529411,607.843137254902 960.7843137254902,607.843137254902 960.7843137254902,615.6862745098039 M941.1764705882352,580.3921568627451 956.8627450980392,580.3921568627451 956.8627450980392,572.5490196078431 960.7843137254902,572.5490196078431 960.7843137254902,560.7843137254902 964.7058823529411,560.7843137254902 964.7058823529411,549.0196078431372 952.9411764705882,549.0196078431372 952.9411764705882,545.0980392156863 968.6274509803922,545.0980392156863 968.6274509803922,541.1764705882352 972.5490196078431,541.1764705882352 972.5490196078431,537.2549019607843 976.4705882352941,537.2549019607843 976.4705882352941,533.3333333333334 980.3921568627451,533.3333333333334 980.3921568627451,521.5686274509803 984.313725490196,521.5686274509803 984.313725490196,517.6470588235294 988.2352941176471,517.6470588235294 988.2352941176471,490.19607843137254 984.313725490196,490.19607843137254 984.313725490196,486.27450980392155 980.3921568627451,486.27450980392155 980.3921568627451,482.35294117647055 984.313725490196,482.35294117647055 984.313725490196,470.5882352941176 976.4705882352941,470.5882352941176 976.4705882352941,466.6666666666667 960.7843137254902,466.6666666666667 960.7843137254902,470.5882352941176 956.8627450980392,470.5882352941176 956.8627450980392,474.5098039215686 952.9411764705882,474.5098039215686 952.9411764705882,486.27450980392155 949.0196078431372,486.27450980392155 949.0196078431372,490.19607843137254 941.1764705882352,490.19607843137254 941.1764705882352,494.11764705882354 933.3333333333334,494.11764705882354 933.3333333333334,490.19607843137254 925.4901960784314,490.19607843137254 925.4901960784314,494.11764705882354 917.6470588235294,494.11764705882354 917.6470588235294,501.96078431372547 913.7254901960785,501.96078431372547 913.7254901960785,505.88235294117646 909.8039215686274,505.88235294117646 909.8039215686274,521.5686274509803 905.8823529411765,521.5686274509803 905.8823529411765,545.0980392156863 909.8039215686274,545.0980392156863 909.8039215686274,560.7843137254902 913.7254901960785,560.7843137254902 913.7254901960785,572.5490196078431 917.6470588235294,572.5490196078431 917.6470588235294,576.4705882352941 941.1764705882352,576.4705882352941 941.1764705882352,580.3921568627451 M976.4705882352941,458.8235294117647 980.3921568627451,458.8235294117647 980.3921568627451,454.9019607843137 976.4705882352941,454.9019607843137 976.4705882352941,458.8235294117647 M843.1372549019608,431.37254901960785 858.8235294117646,431.37254901960785 858.8235294117646,427.45098039215685 862.7450980392157,427.45098039215685 862.7450980392157,423.52941176470586 866.6666666666666,423.52941176470586 866.6666666666666,400 862.7450980392157,400 862.7450980392157,396.078431372549 858.8235294117646,396.078431372549 858.8235294117646,388.2352941176471 850.9803921568628,388.2352941176471 850.9803921568628,384.3137254901961 847.0588235294117,384.3137254901961 847.0588235294117,380.3921568627451 827.4509803921568,380.3921568627451 827.4509803921568,384.3137254901961 823.5294117647059,384.3137254901961 823.5294117647059,403.921568627451 827.4509803921568,403.921568627451 827.4509803921568,407.84313725490193 831.3725490196078,407.84313725490193 831.3725490196078,411.7647058823529 835.2941176470588,411.7647058823529 835.2941176470588,415.6862745098039 839.2156862745098,415.6862745098039 839.2156862745098,423.52941176470586 843.1372549019608,423.52941176470586 843.1372549019608,431.37254901960785 M113.72549019607843,325.4901960784314 121.56862745098039,325.4901960784314 121.56862745098039,321.5686274509804 125.49019607843137,321.5686274509804 125.49019607843137,317.6470588235294 133.33333333333334,317.6470588235294 133.33333333333334,313.72549019607845 137.2549019607843,313.72549019607845 137.2549019607843,309.80392156862746 149.01960784313727,309.80392156862746 149.01960784313727,305.88235294117646 156.86274509803923,305.88235294117646 156.86274509803923,301.96078431372547 160.7843137254902,301.96078431372547 160.7843137254902,298.03921568627453 172.54901960784312,298.03921568627453 172.54901960784312,294.11764705882354 176.47058823529412,294.11764705882354 176.47058823529412,282.3529411764706 180.39215686274508,282.3529411764706 180.39215686274508,270.5882352941176 176.47058823529412,270.5882352941176 176.47058823529412,258.8235294117647 180.39215686274508,258.8235294117647 180.39215686274508,247.05882352941177 184.31372549019608,247.05882352941177 184.31372549019608,239.2156862745098 180.39215686274508,239.2156862745098 180.39215686274508,227.45098039215685 172.54901960784312,227.45098039215685 172.54901960784312,223.52941176470588 164.70588235294116,223.52941176470588 164.70588235294116,219.6078431372549 156.86274509803923,219.6078431372549 156.86274509803923,211.76470588235293 137.2549019607843,211.76470588235293 137.2549019607843,207.84313725490196 133.33333333333334,207.84313725490196 133.33333333333334,203.92156862745097 117.6470588235294,203.92156862745097 117.6470588235294,207.84313725490196 105.88235294117646,207.84313725490196 105.88235294117646,215.68627450980392 101.96078431372548,215.68627450980392 101.96078431372548,219.6078431372549 78.43137254901961,219.6078431372549 78.43137254901961,223.52941176470588 74.50980392156863,223.52941176470588 74.50980392156863,231.37254901960785 70.58823529411765,231.37254901960785 70.58823529411765,235.2941176470588 66.66666666666667,235.2941176470588 66.66666666666667,243.13725490196077 62.745098039215684,243.13725490196077 62.745098039215684,247.05882352941177 58.8235294117647,247.05882352941177 58.8235294117647,262.7450980392157 54.90196078431372,262.7450980392157 54.90196078431372,266.6666666666667 50.98039215686274,266.6666666666667 50.98039215686274,270.5882352941176 47.05882352941176,270.5882352941176 47.05882352941176,274.5098039215686 50.98039215686274,274.5098039215686 50.98039215686274,282.3529411764706 62.745098039215684,282.3529411764706 62.745098039215684,286.27450980392155 66.66666666666667,286.27450980392155 66.66666666666667,290.19607843137254 70.58823529411765,290.19607843137254 70.58823529411765,294.11764705882354 74.50980392156863,294.11764705882354 74.50980392156863,301.96078431372547 78.43137254901961,301.96078431372547 78.43137254901961,305.88235294117646 90.19607843137254,305.88235294117646 90.19607843137254,309.80392156862746 98.0392156862745,309.80392156862746 98.0392156862745,313.72549019607845 101.96078431372548,313.72549019607845 101.96078431372548,317.6470588235294 109.80392156862744,317.6470588235294 109.80392156862744,321.5686274509804 113.72549019607843,321.5686274509804 113.72549019607843,325.4901960784314 M172.54901960784312,317.6470588235294 184.31372549019608,317.6470588235294 184.31372549019608,309.80392156862746 172.54901960784312,309.80392156862746 172.54901960784312,317.6470588235294 M898.0392156862745,200 909.8039215686274,200 909.8039215686274,184.31372549019608 917.6470588235294,184.31372549019608 917.6470588235294,188.23529411764704 921.5686274509803,188.23529411764704 921.5686274509803,180.39215686274508 917.6470588235294,180.39215686274508 917.6470588235294,168.62745098039215 909.8039215686274,168.62745098039215 909.8039215686274,164.70588235294116 901.9607843137255,164.70588235294116 901.9607843137255,156.86274509803923 890.1960784313725,156.86274509803923 890.1960784313725,160.7843137254902 886.2745098039215,160.7843137254902 886.2745098039215,172.54901960784312 890.1960784313725,172.54901960784312 890.1960784313725,188.23529411764704 894.1176470588235,188.23529411764704 894.1176470588235,192.15686274509804 898.0392156862745,192.15686274509804 898.0392156862745,200 M188.23529411764704,164.70588235294116 200,164.70588235294116 200,160.7843137254902 203.92156862745097,160.7843137254902 203.92156862745097,156.86274509803923 207.84313725490196,156.86274509803923 207.84313725490196,149.01960784313727 211.76470588235293,149.01960784313727 211.76470588235293,145.09803921568627 215.68627450980392,145.09803921568627 215.68627450980392,141.1764705882353 219.6078431372549,141.1764705882353 219.6078431372549,125.49019607843137 215.68627450980392,125.49019607843137 215.68627450980392,121.56862745098039 207.84313725490196,121.56862745098039 207.84313725490196,109.80392156862744 203.92156862745097,109.80392156862744 203.92156862745097,105.88235294117646 200,105.88235294117646 200,101.96078431372548 211.76470588235293,101.96078431372548 211.76470588235293,105.88235294117646 215.68627450980392,105.88235294117646 215.68627450980392,109.80392156862744 227.45098039215685,109.80392156862744 227.45098039215685,101.96078431372548 235.2941176470588,101.96078431372548 235.2941176470588,94.11764705882352 243.13725490196077,94.11764705882352 243.13725490196077,98.0392156862745 247.05882352941177,98.0392156862745 247.05882352941177,101.96078431372548 254.90196078431373,101.96078431372548 254.90196078431373,98.0392156862745 262.7450980392157,98.0392156862745 262.7450980392157,90.19607843137254 258.8235294117647,90.19607843137254 258.8235294117647,86.27450980392156 247.05882352941177,86.27450980392156 247.05882352941177,90.19607843137254 243.13725490196077,90.19607843137254 243.13725490196077,82.35294117647058 254.90196078431373,82.35294117647058 254.90196078431373,78.43137254901961 262.7450980392157,78.43137254901961 262.7450980392157,82.35294117647058 270.5882352941176,82.35294117647058 270.5882352941176,74.50980392156863 278.4313725490196,74.50980392156863 278.4313725490196,66.66666666666667 290.19607843137254,66.66666666666667 290.19607843137254,62.745098039215684 294.11764705882354,62.745098039215684 294.11764705882354,54.90196078431372 298.03921568627453,54.90196078431372 298.03921568627453,43.13725490196078 309.80392156862746,43.13725490196078 309.80392156862746,39.21568627450981 313.72549019607845,39.21568627450981 313.72549019607845,35.294117647058826 309.80392156862746,35.294117647058826 309.80392156862746,31.372549019607842 298.03921568627453,31.372549019607842 298.03921568627453,27.45098039215686 294.11764705882354,27.45098039215686 294.11764705882354,23.52941176470588 282.3529411764706,23.52941176470588 282.3529411764706,19.607843137254903 247.05882352941177,19.607843137254903 247.05882352941177,23.52941176470588 235.2941176470588,23.52941176470588 235.2941176470588,31.372549019607842 227.45098039215685,31.372549019607842 227.45098039215685,27.45098039215686 215.68627450980392,27.45098039215686 215.68627450980392,31.372549019607842 211.76470588235293,31.372549019607842 211.76470588235293,27.45098039215686 196.078431372549,27.45098039215686 196.078431372549,50.98039215686274 192.15686274509804,50.98039215686274 192.15686274509804,58.8235294117647 196.078431372549,58.8235294117647 196.078431372549,62.745098039215684 192.15686274509804,62.745098039215684 192.15686274509804,70.58823529411765 188.23529411764704,70.58823529411765 188.23529411764704,82.35294117647058 184.31372549019608,82.35294117647058 184.31372549019608,54.90196078431372 176.47058823529412,54.90196078431372 176.47058823529412,50.98039215686274 172.54901960784312,50.98039215686274 172.54901960784312,43.13725490196078 176.47058823529412,43.13725490196078 176.47058823529412,35.294117647058826 160.7843137254902,35.294117647058826 160.7843137254902,31.372549019607842 152.94117647058823,31.372549019607842 152.94117647058823,35.294117647058826 149.01960784313727,35.294117647058826 149.01960784313727,43.13725490196078 152.94117647058823,43.13725490196078 152.94117647058823,50.98039215686274 145.09803921568627,50.98039215686274 145.09803921568627,54.90196078431372 141.1764705882353,54.90196078431372 141.1764705882353,58.8235294117647 137.2549019607843,58.8235294117647 137.2549019607843,74.50980392156863 141.1764705882353,74.50980392156863 141.1764705882353,82.35294117647058 125.49019607843137,82.35294117647058 125.49019607843137,86.27450980392156 121.56862745098039,86.27450980392156 121.56862745098039,98.0392156862745 125.49019607843137,98.0392156862745 125.49019607843137,101.96078431372548 121.56862745098039,101.96078431372548 121.56862745098039,105.88235294117646 117.6470588235294,105.88235294117646 117.6470588235294,117.6470588235294 121.56862745098039,117.6470588235294 121.56862745098039,137.2549019607843 125.49019607843137,137.2549019607843 125.49019607843137,141.1764705882353 129.41176470588235,141.1764705882353 129.41176470588235,145.09803921568627 137.2549019607843,145.09803921568627 137.2549019607843,149.01960784313727 149.01960784313727,149.01960784313727 149.01960784313727,141.1764705882353 160.7843137254902,141.1764705882353 160.7843137254902,149.01960784313727 164.70588235294116,149.01960784313727 164.70588235294116,152.94117647058823 176.47058823529412,152.94117647058823 176.47058823529412,156.86274509803923 188.23529411764704,156.86274509803923 188.23529411764704,164.70588235294116 M949.0196078431372,164.70588235294116 964.7058823529411,164.70588235294116 964.7058823529411,160.7843137254902 972.5490196078431,160.7843137254902 972.5490196078431,156.86274509803923 980.3921568627451,156.86274509803923 980.3921568627451,152.94117647058823 984.313725490196,152.94117647058823 984.313725490196,137.2549019607843 980.3921568627451,137.2549019607843 980.3921568627451,133.33333333333334 972.5490196078431,133.33333333333334 972.5490196078431,129.41176470588235 968.6274509803922,129.41176470588235 968.6274509803922,125.49019607843137 964.7058823529411,125.49019607843137 964.7058823529411,121.56862745098039 952.9411764705882,121.56862745098039 952.9411764705882,125.49019607843137 945.0980392156863,125.49019607843137 945.0980392156863,133.33333333333334 941.1764705882352,133.33333333333334 941.1764705882352,156.86274509803923 945.0980392156863,156.86274509803923 945.0980392156863,160.7843137254902 949.0196078431372,160.7843137254902 949.0196078431372,164.70588235294116 M839.2156862745098,149.01960784313727 850.9803921568628,149.01960784313727 850.9803921568628,117.6470588235294 847.0588235294117,117.6470588235294 847.0588235294117,113.72549019607843 839.2156862745098,113.72549019607843 839.2156862745098,109.80392156862744 823.5294117647059,109.80392156862744 823.5294117647059,105.88235294117646 815.6862745098039,105.88235294117646 815.6862745098039,101.96078431372548 780.3921568627451,101.96078431372548 780.3921568627451,113.72549019607843 784.313725490196,113.72549019607843 784.313725490196,117.6470588235294 796.0784313725491,117.6470588235294 796.0784313725491,125.49019607843137 807.843137254902,125.49019607843137 807.843137254902,129.41176470588235 819.6078431372549,129.41176470588235 819.6078431372549,133.33333333333334 827.4509803921568,133.33333333333334 827.4509803921568,137.2549019607843 831.3725490196078,137.2549019607843 831.3725490196078,141.1764705882353 835.2941176470588,141.1764705882353 835.2941176470588,145.09803921568627 839.2156862745098,145.09803921568627 839.2156862745098,149.01960784313727 M858.8235294117646,141.1764705882353 866.6666666666666,141.1764705882353 866.6666666666666,137.2549019607843 858.8235294117646,137.2549019607843 858.8235294117646,141.1764705882353 M925.4901960784314,117.6470588235294 945.0980392156863,117.6470588235294 945.0980392156863,113.72549019607843 952.9411764705882,113.72549019607843 952.9411764705882,105.88235294117646 960.7843137254902,105.88235294117646 960.7843137254902,101.96078431372548 964.7058823529411,101.96078431372548 964.7058823529411,94.11764705882352 968.6274509803922,94.11764705882352 968.6274509803922,86.27450980392156 972.5490196078431,86.27450980392156 972.5490196078431,70.58823529411765 976.4705882352941,70.58823529411765 976.4705882352941,62.745098039215684 980.3921568627451,62.745098039215684 980.3921568627451,54.90196078431372 976.4705882352941,54.90196078431372 976.4705882352941,47.05882352941176 960.7843137254902,47.05882352941176 960.7843137254902,43.13725490196078 956.8627450980392,43.13725490196078 956.8627450980392,39.21568627450981 952.9411764705882,39.21568627450981 952.9411764705882,35.294117647058826 949.0196078431372,35.294117647058826 949.0196078431372,31.372549019607842 941.1764705882352,31.372549019607842 941.1764705882352,27.45098039215686 937.2549019607843,27.45098039215686 937.2549019607843,23.52941176470588 925.4901960784314,23.52941176470588 925.4901960784314,19.607843137254903 909.8039215686274,19.607843137254903 909.8039215686274,23.52941176470588 905.8823529411765,23.52941176470588 905.8823529411765,27.45098039215686 886.2745098039215,27.45098039215686 886.2745098039215,31.372549019607842 878.4313725490196,31.372549019607842 878.4313725490196,50.98039215686274 882.3529411764706,50.98039215686274 882.3529411764706,54.90196078431372 886.2745098039215,54.90196078431372 886.2745098039215,58.8235294117647 890.1960784313725,58.8235294117647 890.1960784313725,70.58823529411765 894.1176470588235,70.58823529411765 894.1176470588235,78.43137254901961 898.0392156862745,78.43137254901961 898.0392156862745,86.27450980392156 901.9607843137255,86.27450980392156 901.9607843137255,90.19607843137254 913.7254901960785,90.19607843137254 913.7254901960785,98.0392156862745 917.6470588235294,98.0392156862745 917.6470588235294,109.80392156862744 921.5686274509803,109.80392156862744 921.5686274509803,113.72549019607843 925.4901960784314,113.72549019607843 925.4901960784314,117.6470588235294 M764.7058823529412,109.80392156862744 768.6274509803922,109.80392156862744 768.6274509803922,105.88235294117646 764.7058823529412,105.88235294117646 764.7058823529412,109.80392156862744 M709.8039215686274,90.19607843137254 725.4901960784314,90.19607843137254 725.4901960784314,74.50980392156863 717.6470588235294,74.50980392156863 717.6470588235294,70.58823529411765 737.2549019607843,70.58823529411765 737.2549019607843,74.50980392156863 729.4117647058823,74.50980392156863 729.4117647058823,90.19607843137254 745.0980392156863,90.19607843137254 745.0980392156863,82.35294117647058 749.0196078431372,82.35294117647058 749.0196078431372,78.43137254901961 752.9411764705882,78.43137254901961 752.9411764705882,54.90196078431372 745.0980392156863,54.90196078431372 745.0980392156863,47.05882352941176 741.1764705882352,47.05882352941176 741.1764705882352,43.13725490196078 729.4117647058823,43.13725490196078 729.4117647058823,39.21568627450981 725.4901960784314,39.21568627450981 725.4901960784314,43.13725490196078 713.7254901960785,43.13725490196078 713.7254901960785,50.98039215686274 709.8039215686274,50.98039215686274 709.8039215686274,54.90196078431372 705.8823529411765,54.90196078431372 705.8823529411765,58.8235294117647 701.9607843137255,58.8235294117647 701.9607843137255,82.35294117647058 709.8039215686274,82.35294117647058 709.8039215686274,90.19607843137254 M784.313725490196,90.19607843137254 788.2352941176471,90.19607843137254 788.2352941176471,86.27450980392156 796.0784313725491,86.27450980392156 796.0784313725491,78.43137254901961 800,78.43137254901961 800,66.66666666666667 796.0784313725491,66.66666666666667 796.0784313725491,58.8235294117647 792.156862745098,58.8235294117647 792.156862745098,54.90196078431372 788.2352941176471,54.90196078431372 788.2352941176471,50.98039215686274 784.313725490196,50.98039215686274 784.313725490196,43.13725490196078 780.3921568627451,43.13725490196078 780.3921568627451,35.294117647058826 776.4705882352941,35.294117647058826 776.4705882352941,31.372549019607842 772.5490196078431,31.372549019607842 772.5490196078431,27.45098039215686 768.6274509803922,27.45098039215686 768.6274509803922,23.52941176470588 764.7058823529412,23.52941176470588 764.7058823529412,27.45098039215686 756.8627450980392,27.45098039215686 756.8627450980392,39.21568627450981 760.7843137254902,39.21568627450981 760.7843137254902,47.05882352941176 764.7058823529412,47.05882352941176 764.7058823529412,54.90196078431372 768.6274509803922,54.90196078431372 768.6274509803922,62.745098039215684 764.7058823529412,62.745098039215684 764.7058823529412,78.43137254901961 776.4705882352941,78.43137254901961 776.4705882352941,82.35294117647058 780.3921568627451,82.35294117647058 780.3921568627451,86.27450980392156 784.313725490196,86.27450980392156 784.313725490196,90.19607843137254 M309.80392156862746,58.8235294117647 313.72549019607845,58.8235294117647 313.72549019607845,50.98039215686274 305.88235294117646,50.98039215686274 305.88235294117646,54.90196078431372 309.80392156862746,54.90196078431372 309.80392156862746,58.8235294117647 M121.56862745098039,929.4117647058823 121.56862745098039,925.4901960784314 125.49019607843137,925.4901960784314 125.49019607843137,929.4117647058823 121.56862745098039,929.4117647058823 M913.7254901960785,796.0784313725491 913.7254901960785,800 909.8039215686274,800 909.8039215686274,796.0784313725491 913.7254901960785,796.0784313725491 M317.6470588235294,937.2549019607843 317.6470588235294,933.3333333333334 321.5686274509804,933.3333333333334 321.5686274509804,937.2549019607843 317.6470588235294,937.2549019607843 M419.6078431372549,905.8823529411765 419.6078431372549,901.9607843137255 403.921568627451,901.9607843137255 403.921568627451,898.0392156862745 392.156862745098,898.0392156862745 392.156862745098,894.1176470588235 384.3137254901961,894.1176470588235 384.3137254901961,890.1960784313725 372.54901960784315,890.1960784313725 372.54901960784315,886.2745098039215 368.62745098039215,886.2745098039215 368.62745098039215,882.3529411764706 352.94117647058823,882.3529411764706 352.94117647058823,878.4313725490196 333.3333333333333,878.4313725490196 333.3333333333333,874.5098039215686 337.2549019607843,874.5098039215686 337.2549019607843,866.6666666666666 341.1764705882353,866.6666666666666 341.1764705882353,862.7450980392157 345.09803921568624,862.7450980392157 345.09803921568624,850.9803921568628 341.1764705882353,850.9803921568628 341.1764705882353,847.0588235294117 337.2549019607843,847.0588235294117 337.2549019607843,839.2156862745098 329.4117647058823,839.2156862745098 329.4117647058823,823.5294117647059 325.4901960784314,823.5294117647059 325.4901960784314,819.6078431372549 321.5686274509804,819.6078431372549 321.5686274509804,811.7647058823529 317.6470588235294,811.7647058823529 317.6470588235294,803.9215686274509 313.72549019607845,803.9215686274509 313.72549019607845,800 309.80392156862746,800 309.80392156862746,796.0784313725491 305.88235294117646,796.0784313725491 305.88235294117646,800 301.96078431372547,800 301.96078431372547,792.156862745098 294.11764705882354,792.156862745098 294.11764705882354,780.3921568627451 290.19607843137254,780.3921568627451 290.19607843137254,760.7843137254902 286.27450980392155,760.7843137254902 286.27450980392155,749.0196078431372 282.3529411764706,749.0196078431372 282.3529411764706,745.0980392156863 278.4313725490196,745.0980392156863 278.4313725490196,737.2549019607843 282.3529411764706,737.2549019607843 282.3529411764706,709.8039215686274 278.4313725490196,709.8039215686274 278.4313725490196,690.1960784313725 282.3529411764706,690.1960784313725 282.3529411764706,678.4313725490196 274.5098039215686,678.4313725490196 274.5098039215686,674.5098039215686 278.4313725490196,674.5098039215686 278.4313725490196,658.8235294117646 282.3529411764706,658.8235294117646 282.3529411764706,654.9019607843137 278.4313725490196,654.9019607843137 278.4313725490196,650.9803921568628 274.5098039215686,650.9803921568628 274.5098039215686,647.0588235294117 282.3529411764706,647.0588235294117 282.3529411764706,639.2156862745098 274.5098039215686,639.2156862745098 274.5098039215686,635.2941176470588 286.27450980392155,635.2941176470588 286.27450980392155,631.3725490196078 282.3529411764706,631.3725490196078 282.3529411764706,627.4509803921569 278.4313725490196,627.4509803921569 278.4313725490196,623.5294117647059 286.27450980392155,623.5294117647059 286.27450980392155,615.6862745098039 290.19607843137254,615.6862745098039 290.19607843137254,611.7647058823529 286.27450980392155,611.7647058823529 286.27450980392155,607.843137254902 290.19607843137254,607.843137254902 290.19607843137254,603.9215686274509 286.27450980392155,603.9215686274509 286.27450980392155,596.0784313725491 282.3529411764706,596.0784313725491 282.3529411764706,592.156862745098 270.5882352941176,592.156862745098 270.5882352941176,588.2352941176471 262.7450980392157,588.2352941176471 262.7450980392157,584.313725490196 258.8235294117647,584.313725490196 258.8235294117647,572.5490196078431 254.90196078431373,572.5490196078431 254.90196078431373,564.7058823529412 250.98039215686273,564.7058823529412 250.98039215686273,560.7843137254902 247.05882352941177,560.7843137254902 247.05882352941177,552.9411764705882 243.13725490196077,552.9411764705882 243.13725490196077,545.0980392156863 239.2156862745098,545.0980392156863 239.2156862745098,509.80392156862746 243.13725490196077,509.80392156862746 243.13725490196077,501.96078431372547 239.2156862745098,501.96078431372547 239.2156862745098,482.35294117647055 243.13725490196077,482.35294117647055 243.13725490196077,474.5098039215686 239.2156862745098,474.5098039215686 239.2156862745098,470.5882352941176 247.05882352941177,470.5882352941176 247.05882352941177,458.8235294117647 254.90196078431373,458.8235294117647 254.90196078431373,450.98039215686276 258.8235294117647,450.98039215686276 258.8235294117647,443.1372549019608 278.4313725490196,443.1372549019608 278.4313725490196,439.2156862745098 286.27450980392155,439.2156862745098 286.27450980392155,431.37254901960785 290.19607843137254,431.37254901960785 290.19607843137254,419.6078431372549 294.11764705882354,419.6078431372549 294.11764705882354,415.6862745098039 298.03921568627453,415.6862745098039 298.03921568627453,411.7647058823529 301.96078431372547,411.7647058823529 301.96078431372547,403.921568627451 305.88235294117646,403.921568627451 305.88235294117646,396.078431372549 309.80392156862746,396.078431372549 309.80392156862746,392.156862745098 368.62745098039215,392.156862745098 368.62745098039215,396.078431372549 372.54901960784315,396.078431372549 372.54901960784315,400 376.4705882352941,400 376.4705882352941,403.921568627451 380.3921568627451,403.921568627451 380.3921568627451,411.7647058823529 388.2352941176471,411.7647058823529 388.2352941176471,419.6078431372549 403.921568627451,419.6078431372549 403.921568627451,427.45098039215685 407.84313725490193,427.45098039215685 407.84313725490193,435.29411764705884 411.7647058823529,435.29411764705884 411.7647058823529,439.2156862745098 415.6862745098039,439.2156862745098 415.6862745098039,447.05882352941177 423.52941176470586,447.05882352941177 423.52941176470586,454.9019607843137 431.37254901960785,454.9019607843137 431.37254901960785,458.8235294117647 443.1372549019608,458.8235294117647 443.1372549019608,462.7450980392157 447.05882352941177,462.7450980392157 447.05882352941177,466.6666666666667 450.98039215686276,466.6666666666667 450.98039215686276,470.5882352941176 462.7450980392157,470.5882352941176 462.7450980392157,466.6666666666667 470.5882352941176,466.6666666666667 470.5882352941176,470.5882352941176 474.5098039215686,470.5882352941176 474.5098039215686,478.4313725490196 470.5882352941176,478.4313725490196 470.5882352941176,486.27450980392155 462.7450980392157,486.27450980392155 462.7450980392157,490.19607843137254 458.8235294117647,490.19607843137254 458.8235294117647,494.11764705882354 462.7450980392157,494.11764705882354 462.7450980392157,505.88235294117646 466.6666666666667,505.88235294117646 466.6666666666667,509.80392156862746 470.5882352941176,509.80392156862746 470.5882352941176,513.7254901960785 474.5098039215686,513.7254901960785 474.5098039215686,517.6470588235294 478.4313725490196,517.6470588235294 478.4313725490196,533.3333333333334 482.35294117647055,533.3333333333334 482.35294117647055,580.3921568627451 478.4313725490196,580.3921568627451 478.4313725490196,592.156862745098 470.5882352941176,592.156862745098 470.5882352941176,603.9215686274509 474.5098039215686,603.9215686274509 474.5098039215686,623.5294117647059 478.4313725490196,623.5294117647059 478.4313725490196,627.4509803921569 498.0392156862745,627.4509803921569 498.0392156862745,631.3725490196078 505.88235294117646,631.3725490196078 505.88235294117646,639.2156862745098 509.80392156862746,639.2156862745098 509.80392156862746,643.1372549019608 513.7254901960785,643.1372549019608 513.7254901960785,662.7450980392157 517.6470588235294,662.7450980392157 517.6470588235294,666.6666666666666 521.5686274509803,666.6666666666666 521.5686274509803,674.5098039215686 529.4117647058823,674.5098039215686 529.4117647058823,678.4313725490196 533.3333333333334,678.4313725490196 533.3333333333334,713.7254901960785 537.2549019607843,713.7254901960785 537.2549019607843,717.6470588235294 541.1764705882352,717.6470588235294 541.1764705882352,729.4117647058823 545.0980392156863,729.4117647058823 545.0980392156863,737.2549019607843 549.0196078431372,737.2549019607843 549.0196078431372,749.0196078431372 552.9411764705882,749.0196078431372 552.9411764705882,764.7058823529412 556.8627450980392,764.7058823529412 556.8627450980392,776.4705882352941 560.7843137254902,776.4705882352941 560.7843137254902,788.2352941176471 564.7058823529412,788.2352941176471 564.7058823529412,800 568.6274509803922,800 568.6274509803922,803.9215686274509 564.7058823529412,803.9215686274509 564.7058823529412,823.5294117647059 568.6274509803922,823.5294117647059 568.6274509803922,831.3725490196078 556.8627450980392,831.3725490196078 556.8627450980392,835.2941176470588 552.9411764705882,835.2941176470588 552.9411764705882,850.9803921568628 556.8627450980392,850.9803921568628 556.8627450980392,854.9019607843137 549.0196078431372,854.9019607843137 549.0196078431372,862.7450980392157 545.0980392156863,862.7450980392157 545.0980392156863,870.5882352941177 549.0196078431372,870.5882352941177 549.0196078431372,882.3529411764706 545.0980392156863,882.3529411764706 545.0980392156863,886.2745098039215 541.1764705882352,886.2745098039215 541.1764705882352,890.1960784313725 537.2549019607843,890.1960784313725 537.2549019607843,894.1176470588235 525.4901960784314,894.1176470588235 525.4901960784314,898.0392156862745 517.6470588235294,898.0392156862745 517.6470588235294,901.9607843137255 509.80392156862746,901.9607843137255 509.80392156862746,905.8823529411765 486.27450980392155,905.8823529411765 486.27450980392155,901.9607843137255 482.35294117647055,901.9607843137255 482.35294117647055,898.0392156862745 474.5098039215686,898.0392156862745 474.5098039215686,901.9607843137255 466.6666666666667,901.9607843137255 466.6666666666667,898.0392156862745 431.37254901960785,898.0392156862745 431.37254901960785,901.9607843137255 427.45098039215685,901.9607843137255 427.45098039215685,905.8823529411765 419.6078431372549,905.8823529411765 M439.2156862745098,866.6666666666666 450.98039215686276,866.6666666666666 450.98039215686276,862.7450980392157 443.1372549019608,862.7450980392157 443.1372549019608,858.8235294117646 431.37254901960785,858.8235294117646 431.37254901960785,862.7450980392157 439.2156862745098,862.7450980392157 439.2156862745098,866.6666666666666 M768.6274509803922,890.1960784313725 768.6274509803922,886.2745098039215 772.5490196078431,886.2745098039215 772.5490196078431,890.1960784313725 768.6274509803922,890.1960784313725 M556.8627450980392,858.8235294117646 556.8627450980392,854.9019607843137 564.7058823529412,854.9019607843137 564.7058823529412,858.8235294117646 556.8627450980392,858.8235294117646 M972.5490196078431,784.313725490196 972.5490196078431,780.3921568627451 976.4705882352941,780.3921568627451 976.4705882352941,784.313725490196 972.5490196078431,784.313725490196 M58.8235294117647,615.6862745098039 58.8235294117647,611.7647058823529 62.745098039215684,611.7647058823529 62.745098039215684,615.6862745098039 58.8235294117647,615.6862745098039 M482.35294117647055,611.7647058823529 482.35294117647055,603.9215686274509 486.27450980392155,603.9215686274509 486.27450980392155,611.7647058823529 482.35294117647055,611.7647058823529 M964.7058823529411,521.5686274509803 964.7058823529411,517.6470588235294 968.6274509803922,517.6470588235294 968.6274509803922,521.5686274509803 964.7058823529411,521.5686274509803 M960.7843137254902,525.4901960784314 960.7843137254902,521.5686274509803 964.7058823529411,521.5686274509803 964.7058823529411,525.4901960784314 960.7843137254902,525.4901960784314 M949.0196078431372,541.1764705882352 945.0980392156863,541.1764705882352 945.0980392156863,533.3333333333334 941.1764705882352,533.3333333333334 941.1764705882352,537.2549019607843 937.2549019607843,537.2549019607843 937.2549019607843,541.1764705882352 929.4117647058823,541.1764705882352 929.4117647058823,533.3333333333334 933.3333333333334,533.3333333333334 933.3333333333334,505.88235294117646 956.8627450980392,505.88235294117646 956.8627450980392,509.80392156862746 952.9411764705882,509.80392156862746 952.9411764705882,513.7254901960785 945.0980392156863,513.7254901960785 945.0980392156863,517.6470588235294 941.1764705882352,517.6470588235294 941.1764705882352,529.4117647058823 949.0196078431372,529.4117647058823 949.0196078431372,525.4901960784314 960.7843137254902,525.4901960784314 960.7843137254902,533.3333333333334 949.0196078431372,533.3333333333334 949.0196078431372,541.1764705882352 M952.9411764705882,545.0980392156863 949.0196078431372,545.0980392156863 949.0196078431372,541.1764705882352 952.9411764705882,541.1764705882352 952.9411764705882,545.0980392156863 M772.5490196078431,427.45098039215685 772.5490196078431,423.52941176470586 764.7058823529412,423.52941176470586 764.7058823529412,415.6862745098039 756.8627450980392,415.6862745098039 756.8627450980392,419.6078431372549 745.0980392156863,419.6078431372549 745.0980392156863,407.84313725490193 741.1764705882352,407.84313725490193 741.1764705882352,403.921568627451 737.2549019607843,403.921568627451 737.2549019607843,400 733.3333333333334,400 733.3333333333334,396.078431372549 737.2549019607843,396.078431372549 737.2549019607843,392.156862745098 741.1764705882352,392.156862745098 741.1764705882352,388.2352941176471 745.0980392156863,388.2352941176471 745.0980392156863,368.62745098039215 749.0196078431372,368.62745098039215 749.0196078431372,372.54901960784315 756.8627450980392,372.54901960784315 756.8627450980392,376.4705882352941 760.7843137254902,376.4705882352941 760.7843137254902,380.3921568627451 752.9411764705882,380.3921568627451 752.9411764705882,400 756.8627450980392,400 756.8627450980392,403.921568627451 768.6274509803922,403.921568627451 768.6274509803922,400 772.5490196078431,400 772.5490196078431,415.6862745098039 776.4705882352941,415.6862745098039 776.4705882352941,423.52941176470586 780.3921568627451,423.52941176470586 780.3921568627451,427.45098039215685 772.5490196078431,427.45098039215685 M737.2549019607843,368.62745098039215 737.2549019607843,364.70588235294116 741.1764705882352,364.70588235294116 741.1764705882352,368.62745098039215 737.2549019607843,368.62745098039215 M717.6470588235294,364.70588235294116 717.6470588235294,360.78431372549016 733.3333333333334,360.78431372549016 733.3333333333334,364.70588235294116 717.6470588235294,364.70588235294116 M698.0392156862745,337.2549019607843 698.0392156862745,333.3333333333333 701.9607843137255,333.3333333333333 701.9607843137255,337.2549019607843 698.0392156862745,337.2549019607843 M698.0392156862745,325.4901960784314 698.0392156862745,317.6470588235294 701.9607843137255,317.6470588235294 701.9607843137255,325.4901960784314 698.0392156862745,325.4901960784314 M694.1176470588235,313.72549019607845 694.1176470588235,309.80392156862746 698.0392156862745,309.80392156862746 698.0392156862745,313.72549019607845 694.1176470588235,313.72549019607845 M690.1960784313725,309.80392156862746 690.1960784313725,305.88235294117646 694.1176470588235,305.88235294117646 694.1176470588235,309.80392156862746 690.1960784313725,309.80392156862746 M360.78431372549016,278.4313725490196 360.78431372549016,274.5098039215686 352.94117647058823,274.5098039215686 352.94117647058823,270.5882352941176 356.8627450980392,270.5882352941176 356.8627450980392,266.6666666666667 364.70588235294116,266.6666666666667 364.70588235294116,270.5882352941176 368.62745098039215,270.5882352941176 368.62745098039215,274.5098039215686 364.70588235294116,274.5098039215686 364.70588235294116,278.4313725490196 360.78431372549016,278.4313725490196 M623.5294117647059,250.98039215686273 623.5294117647059,247.05882352941177 627.4509803921569,247.05882352941177 627.4509803921569,250.98039215686273 623.5294117647059,250.98039215686273 M266.6666666666667,239.2156862745098 266.6666666666667,235.2941176470588 270.5882352941176,235.2941176470588 270.5882352941176,231.37254901960785 286.27450980392155,231.37254901960785 286.27450980392155,235.2941176470588 278.4313725490196,235.2941176470588 278.4313725490196,239.2156862745098 266.6666666666667,239.2156862745098 M301.96078431372547,239.2156862745098 301.96078431372547,235.2941176470588 309.80392156862746,235.2941176470588 309.80392156862746,239.2156862745098 301.96078431372547,239.2156862745098 M298.03921568627453,235.2941176470588 298.03921568627453,231.37254901960785 301.96078431372547,231.37254901960785 301.96078431372547,235.2941176470588 298.03921568627453,235.2941176470588 M141.1764705882353,82.35294117647058 145.09803921568627,82.35294117647058 145.09803921568627,86.27450980392156 141.1764705882353,86.27450980392156 141.1764705882353,82.35294117647058 M200,101.96078431372548 184.31372549019608,101.96078431372548 184.31372549019608,98.0392156862745 192.15686274509804,98.0392156862745 192.15686274509804,90.19607843137254 200,90.19607843137254 200,101.96078431372548 M239.2156862745098,70.58823529411765 239.2156862745098,66.66666666666667 243.13725490196077,66.66666666666667 243.13725490196077,70.58823529411765 239.2156862745098,70.58823529411765 M235.2941176470588,47.05882352941176 235.2941176470588,39.21568627450981 239.2156862745098,39.21568627450981 239.2156862745098,47.05882352941176 235.2941176470588,47.05882352941176Z"/></g></g></svg>